<svg width="24" height="25" viewBox="0 0 24 25" fill="none" xmlns="http://www.w3.org/2000/svg">
<path d="M14 2.49982C11.8783 2.49982 9.84344 3.34267 8.34315 4.84296C6.84285 6.34325 6 8.37809 6 10.4998C6 12.6215 6.84285 14.6564 8.34315 16.1567C9.84344 17.657 11.8783 18.4998 14 18.4998C16.1217 18.4998 18.1566 17.657 19.6569 16.1567C21.1571 14.6564 22 12.6215 22 10.4998H20C20 13.8198 17.32 16.4998 14 16.4998C12.4087 16.4998 10.8826 15.8677 9.75736 14.7425C8.63214 13.6172 8 12.0911 8 10.4998C8 8.90852 8.63214 7.38239 9.75736 6.25718C10.8826 5.13196 12.4087 4.49982 14 4.49982C14.43 4.49982 14.86 4.54982 15.27 4.63982L16.88 3.03982C15.96 2.67982 15 2.49982 14 2.49982ZM20.59 4.07982L14 10.6698L11.62 8.28982L10.21 9.70982L14 13.4998L22 5.49982M4.93 6.31982C3.08 7.83982 2 10.1098 2 12.4998C2 14.6215 2.84285 16.6564 4.34315 18.1567C5.84344 19.657 7.87827 20.4998 10 20.4998C10.64 20.4998 11.27 20.4198 11.88 20.2698C10.12 19.8798 8.5 18.9998 7.17 17.7898C5.22 16.7498 4 14.7098 4 12.4998C4 12.1998 4.03 11.9098 4.07 11.6098C4.03 11.2398 4 10.8698 4 10.4998C4 9.05982 4.32 7.62982 4.93 6.31982Z" fill="#333333"/>
</svg>
