<svg width="21" height="20" viewBox="0 0 21 20" fill="none" xmlns="http://www.w3.org/2000/svg">
<path d="M10.4963 0.587891C7.55515 0.587891 5.20221 2.94083 5.20221 5.88201V8.23495C4.20221 8.23495 3.4375 8.99966 3.4375 9.99966V17.6467C3.4375 18.6467 4.20221 19.4114 5.20221 19.4114H15.7904C16.7904 19.4114 17.5551 18.6467 17.5551 17.6467V9.99966C17.5551 8.99966 16.7904 8.23495 15.7904 8.23495V5.88201C15.7904 2.94083 13.4375 0.587891 10.4963 0.587891ZM16.3787 9.99966V17.6467C16.3787 17.9997 16.1434 18.235 15.7904 18.235H5.20221C4.84926 18.235 4.61397 17.9997 4.61397 17.6467V9.99966C4.61397 9.64671 4.84926 9.41142 5.20221 9.41142H5.79044H15.2022H15.7904C16.1434 9.41142 16.3787 9.64671 16.3787 9.99966ZM6.37868 8.23495V5.88201C6.37868 3.58789 8.20221 1.76436 10.4963 1.76436C12.7904 1.76436 14.614 3.58789 14.614 5.88201V8.23495H6.37868Z" fill="#333333"/>
<path d="M10.4991 11.1758C9.49908 11.1758 8.73438 11.9405 8.73438 12.9405C8.73438 13.7052 9.20496 14.3523 9.91085 14.5875V15.8817C9.91085 16.2346 10.1461 16.4699 10.4991 16.4699C10.852 16.4699 11.0873 16.2346 11.0873 15.8817V14.5875C11.7932 14.3523 12.2638 13.7052 12.2638 12.9405C12.2638 11.9405 11.4991 11.1758 10.4991 11.1758ZM10.4991 13.5287C10.1461 13.5287 9.91085 13.2934 9.91085 12.9405C9.91085 12.5875 10.1461 12.3523 10.4991 12.3523C10.852 12.3523 11.0873 12.5875 11.0873 12.9405C11.0873 13.2934 10.852 13.5287 10.4991 13.5287Z" fill="#333333"/>
</svg>
