<svg width="47" height="50" viewBox="0 0 47 50" fill="none" xmlns="http://www.w3.org/2000/svg">
<g clip-path="url(#clip0_2141_462)">
<path d="M41 50H5.1C2.3 50 0 47.7 0 44.9V17.6C0 15.9 0.8 14.4 2.2 13.4L20 0.9C21.7 -0.3 24.1 -0.3 25.9 0.9L43.9 13.5C45.2 14.4 46.1 16 46.1 17.7V45C46.1 47.7 43.8 50 41 50ZM22.9 4.5C22.8 4.5 22.7 4.5 22.6 4.6L4.8 17.2C4.6 17.3 4.5 17.5 4.5 17.7V45C4.5 45.3 4.8 45.6 5.1 45.6H41C41.3 45.6 41.6 45.3 41.6 45V17.6C41.6 17.4 41.5 17.2 41.3 17.1L23.3 4.6C23.2 4.5 23.1 4.5 22.9 4.5Z" fill="#8C51FF"/>
<path d="M19.7016 40.6999C19.0016 40.6999 18.5016 40.2999 18.1016 39.8999C17.4016 38.7999 13.3016 35.2999 12.1016 34.6999C11.3016 34.4999 10.6016 33.7999 10.6016 32.7999C10.6016 31.7999 11.4016 30.8999 12.5016 30.8999C13.9016 30.8999 17.0016 33.3999 19.2016 35.4999C21.4016 30.9999 26.4016 22.0999 32.0016 18.6999C32.8016 18.0999 34.1016 18.3999 34.5016 19.3999C34.9016 20.3999 34.8016 21.4999 33.8016 21.8999C28.6016 25.0999 23.0016 35.6999 21.3016 39.4999C21.0016 40.1999 20.4016 40.5999 19.7016 40.6999Z" fill="#8C51FF"/>
</g>
<defs>
<clipPath id="clip0_2141_462">
<rect width="46.1" height="50" fill="white"/>
</clipPath>
</defs>
</svg>
