<svg width="82" height="82" viewBox="0 0 82 82" fill="none" xmlns="http://www.w3.org/2000/svg">
<rect width="82" height="82" rx="41" fill="#8C51FF"/>
<path d="M61.148 46.5948L42.4713 65.196C42.2786 65.3882 42.0497 65.5406 41.7978 65.6447C41.5458 65.7487 41.2758 65.8022 41.0031 65.8022C40.7304 65.8022 40.4603 65.7487 40.2084 65.6447C39.9565 65.5406 39.7276 65.3882 39.5349 65.196L20.8581 46.5948C20.4688 46.207 20.25 45.681 20.25 45.1325C20.25 44.5841 20.4688 44.0581 20.8581 43.6703C21.2475 43.2824 21.7757 43.0646 22.3263 43.0646C22.877 43.0646 23.4052 43.2824 23.7945 43.6703L38.9279 58.745V18.2641C38.9279 17.7159 39.1465 17.1902 39.5357 16.8026C39.9249 16.415 40.4527 16.1973 41.0031 16.1973C41.5535 16.1973 42.0813 16.415 42.4705 16.8026C42.8596 17.1902 43.0783 17.7159 43.0783 18.2641V58.745L58.2116 43.6703C58.601 43.2824 59.1291 43.0646 59.6798 43.0646C60.2305 43.0646 60.7586 43.2824 61.148 43.6703C61.5374 44.0581 61.7562 44.5841 61.7562 45.1325C61.7562 45.681 61.5374 46.207 61.148 46.5948Z" fill="white"/>
</svg>
