<svg width="228" height="52" viewBox="0 0 228 52" fill="none" xmlns="http://www.w3.org/2000/svg">
<rect x="0.5" y="1.38965" width="51" height="49.2208" rx="3.5" stroke="black"/>
<mask id="mask0_2141_293" style="mask-type:luminance" maskUnits="userSpaceOnUse" x="16" y="2" width="32" height="32">
<path d="M16.0234 2.88965H47.7034V33.1187H16.0234V2.88965Z" fill="white"/>
</mask>
<g mask="url(#mask0_2141_293)">
<path d="M37.8722 5.43595L43.4719 9.65727C42.5713 10.6214 42.7122 12.0646 43.7847 12.8712L28.8213 28.9035C27.7488 28.0908 26.1503 28.2175 25.2463 29.1878L22.4756 27.0988C24.8441 27.7199 27.3156 26.4962 28.01 24.3701C28.5978 22.5561 27.6972 20.6185 25.8478 19.7192L22.6681 18.1741L34.2938 5.71716C35.3697 6.52682 36.975 6.40011 37.8722 5.43595ZM35.7513 2.18188L20.4819 18.5418L25.1775 20.8255C26.6625 21.5487 27.2194 23.2112 26.4184 24.5462C25.7275 25.7113 24.2081 26.2644 22.8091 25.872L16.1953 24.0147L27.3638 32.4388L47.3975 10.9645L35.7513 2.18188Z" fill="#8C51FF"/>
</g>
<mask id="mask1_2141_293" style="mask-type:luminance" maskUnits="userSpaceOnUse" x="38" y="44" width="12" height="6">
<path d="M38.6172 44.1938H49.8338V49.1105H38.6172V44.1938Z" fill="white"/>
</mask>
<g mask="url(#mask1_2141_293)">
<path d="M48.45 46.2767C48.9381 46.2705 49.3334 46.6228 49.3403 47.0586C49.3403 47.0678 49.3403 47.074 49.3403 47.0833C49.3403 47.519 48.9484 47.8744 48.4603 47.8744C47.9756 47.8744 47.5803 47.519 47.5803 47.0833C47.5734 46.6445 47.9619 46.2829 48.4466 46.2767H48.45ZM39.9559 44.3484C39.3063 44.3484 38.7734 44.8243 38.7734 45.4084V48.7551C38.7734 49.3423 39.3063 49.8151 39.9559 49.8151H49.3678C50.0175 49.8151 50.5469 49.3423 50.5469 48.7551V45.4084C50.5469 44.8243 50.0175 44.3484 49.3678 44.3484H39.9559Z" fill="#8C51FF"/>
</g>
<mask id="mask2_2141_293" style="mask-type:luminance" maskUnits="userSpaceOnUse" x="2" y="11" width="7" height="12">
<path d="M2 11.7583H8.105V22.8339H2V11.7583Z" fill="white"/>
</mask>
<g mask="url(#mask2_2141_293)">
<path d="M4.2925 19.7589C4.78062 19.7466 5.18625 20.0896 5.2 20.5253C5.20688 20.5346 5.20688 20.5439 5.20688 20.55C5.20688 20.9858 4.81156 21.3412 4.32 21.3412C3.83531 21.3412 3.44 20.992 3.44 20.55C3.44 20.1236 3.81812 19.7713 4.2925 19.7589ZM2.46375 11.8447C1.81062 11.8447 1.28125 12.3175 1.28125 12.9047V21.3659C1.28125 21.9561 1.81062 22.4289 2.46375 22.4289H6.18313C6.83281 22.4289 7.36562 21.9561 7.36562 21.3659V12.9047C7.36562 12.3175 6.83281 11.8447 6.18313 11.8447H2.46375Z" fill="#8C51FF"/>
</g>
<path d="M39.225 10.6059C39.225 9.90749 38.5959 9.33888 37.8191 9.33888C37.0422 9.33579 36.4062 9.90131 36.4062 10.6059C36.4062 11.3012 37.0387 11.8698 37.8191 11.8729C38.5891 11.8729 39.225 11.3074 39.225 10.609C39.225 10.6059 39.225 10.6059 39.225 10.6059Z" fill="#8C51FF"/>
<path d="M29.3731 15.0466L29.8681 15.4174C30.4044 15.1455 31.0712 15.2011 31.5422 15.5565L30.8822 16.2673C30.6897 16.122 30.4044 16.1436 30.2428 16.3167C30.0847 16.4928 30.1087 16.7462 30.3012 16.8946C30.4353 16.9935 30.6244 17.0151 30.7894 16.9471L31.6316 16.635C32.3878 16.36 33.2506 16.6906 33.56 17.3705C33.6872 17.6517 33.7009 17.9545 33.6081 18.2419L34.1237 18.6344L33.4569 19.3544L32.9825 18.996C32.4359 19.305 31.7347 19.2617 31.2362 18.8878L31.8997 18.1832C32.0922 18.3254 32.3741 18.3068 32.5356 18.1338C32.7006 17.9638 32.6697 17.7042 32.4841 17.5621C32.35 17.4632 32.1781 17.4385 32.0234 17.4941L31.1503 17.8124C30.3941 18.0905 29.5347 17.7599 29.2219 17.08C29.0878 16.7802 29.0775 16.4434 29.1978 16.1375L28.7062 15.7635L29.3731 15.0466ZM30.2497 13.1337C30.1981 13.1337 30.1466 13.1368 30.0916 13.143C28.1047 13.2604 26.5991 14.8056 26.7262 16.5917C26.7297 16.6381 26.7331 16.6844 26.74 16.7339C27.07 19.4379 29.7066 21.4311 32.7281 21.2488C34.7184 21.1344 36.2275 19.5862 36.0969 17.7969C36.09 17.7506 36.0866 17.7042 36.0831 17.6579C35.7566 15.0126 33.2128 13.0379 30.2497 13.1337Z" fill="#8C51FF"/>
<path d="M23.1616 24.855L16.455 22.973C15.6953 22.7629 15.0147 22.3828 14.4647 21.8698L12.8044 20.3277L8.73438 21.3599V12.9142H9.88594L17.3522 10.9858C17.8747 10.8468 18.4281 10.819 18.9609 10.9086L25.1244 11.9098L20.6453 16.7245H19.0744C18.4006 16.7245 17.8541 17.2158 17.8541 17.8184C17.8541 18.2202 18.1016 18.5879 18.49 18.7826L24.6122 21.7616C25.5231 22.2035 25.8634 23.2295 25.3684 24.0484C24.9388 24.7561 24.0175 25.093 23.1616 24.855Z" fill="#8C51FF"/>
<mask id="mask3_2141_293" style="mask-type:luminance" maskUnits="userSpaceOnUse" x="16" y="31" width="34" height="13">
<path d="M16.0234 31.5361H49.8347V43.3194H16.0234V31.5361Z" fill="white"/>
</mask>
<g mask="url(#mask3_2141_293)">
<path d="M19.2232 32.2994L24.7782 35.7513C25.7682 36.3631 26.9404 36.6876 28.14 36.6876H35.4997C35.84 36.6876 36.1082 36.4435 36.1082 36.1375C36.1082 35.8378 35.84 35.5937 35.4997 35.5937H30.8729C29.8554 35.5906 29.0338 34.8458 29.0372 33.9311C29.0407 33.0225 29.8588 32.2871 30.8729 32.2809H40.5872C43.5022 32.2809 46.1216 33.894 47.1872 36.3415L49.8066 42.3923C49.9269 42.6642 49.7791 42.9732 49.4732 43.0783C49.4044 43.103 49.3322 43.1154 49.2566 43.1154H39.2122C38.4835 42.1234 37.2597 41.5054 35.9329 41.459H26.7169C25.5825 41.459 24.4929 41.0944 23.6335 40.4299L16.7929 35.127C15.961 34.4812 15.8647 33.347 16.5866 32.5992C17.2535 31.91 18.3913 31.7803 19.2232 32.2994Z" fill="#8C51FF"/>
</g>
<path d="M69.9163 22.79V12.8269H73.89V10.5154H63V12.8269H66.9875V22.79H69.9163Z" fill="black"/>
<path d="M85.5569 22.79V20.5279H78.8056V17.6725H85.4056V15.4351H78.8056V12.7651H85.5569V10.5154H75.8906V22.79H85.5569Z" fill="black"/>
<path d="M99.7784 22.79V10.5154H96.8634V18.4636L90.5384 10.5154H87.5547V22.79H90.4697V14.5451L96.9734 22.79H99.7784Z" fill="black"/>
<path d="M115.958 22.79L110.691 10.5154H107.048L101.781 22.79H104.971L105.824 20.6762H111.929L112.781 22.79H115.958ZM111.131 18.4141H106.608L108.876 12.7898L111.131 18.4141Z" fill="black"/>
<path d="M130.177 22.79V10.5154H127.262V18.4636L120.937 10.5154H117.953V22.79H120.868V14.5451L127.372 22.79H130.177Z" fill="black"/>
<path d="M139.096 22.79V12.8269H143.07V10.5154H132.18V12.8269H136.167V22.79H139.096Z" fill="black"/>
<path d="M146.404 19.2979C147.642 18.4944 148.508 17.2583 148.508 15.8739C148.508 14.6872 147.628 14.0073 146.665 14.0073C145.813 14.0073 145.07 14.6625 145.07 15.4783C145.07 16.2447 145.689 16.8009 146.459 16.8009C146.61 16.8009 146.789 16.7639 146.844 16.7268C146.679 17.3819 145.923 18.1607 145.277 18.4697L146.404 19.2979Z" fill="black"/>
<path d="M150.508 21.0347C151.8 22.1967 153.67 22.9878 156.297 22.9878C159.982 22.9878 161.755 21.2943 161.755 19.0446C161.755 16.3251 158.895 15.7194 156.64 15.2621C155.073 14.9283 153.918 14.6687 153.918 13.8405C153.918 13.1112 154.619 12.5921 155.925 12.5921C157.259 12.5921 158.73 13.0123 159.83 13.9394L161.453 12.0235C160.105 10.8986 158.304 10.3176 156.132 10.3176C152.914 10.3176 150.948 11.974 150.948 14.0136C150.948 16.7454 153.822 17.3017 156.049 17.759C157.63 18.0928 158.813 18.4018 158.813 19.3289C158.813 20.0211 158.029 20.701 156.434 20.701C154.55 20.701 153.065 19.9469 152.103 19.0446L150.508 21.0347Z" fill="black"/>
<path d="M70.15 41.6827C73.2713 41.6827 74.99 40.187 75.9663 38.6665L73.4638 37.5788C72.9 38.5924 71.6763 39.3588 70.15 39.3588C67.785 39.3588 65.9838 37.6529 65.9838 35.329C65.9838 33.0175 67.785 31.3117 70.15 31.3117C71.6763 31.3117 72.9 32.1028 73.4638 33.0917L75.9663 31.9915C75.0038 30.4588 73.2713 28.9878 70.15 28.9878C66.1625 28.9878 63 31.5589 63 35.329C63 39.1115 66.1625 41.6827 70.15 41.6827Z" fill="#8C51FF"/>
<path d="M91.145 41.4726L85.8788 29.198H82.235L76.9688 41.4726H80.1588L81.0113 39.3588H87.1163L87.9688 41.4726H91.145ZM86.3188 37.0967H81.795L84.0638 31.4724L86.3188 37.0967Z" fill="#8C51FF"/>
<path d="M92.1406 39.7173C93.4331 40.8793 95.3031 41.6704 97.9294 41.6704C101.614 41.6704 103.388 39.9769 103.388 37.7272C103.388 35.0077 100.528 34.402 98.2731 33.9447C96.7056 33.6109 95.5506 33.3514 95.5506 32.5232C95.5506 31.7939 96.2519 31.2747 97.5581 31.2747C98.8919 31.2747 100.363 31.695 101.463 32.622L103.086 30.7061C101.738 29.5812 99.9369 29.0002 97.7644 29.0002C94.5469 29.0002 92.5806 30.6566 92.5806 32.6962C92.5806 35.428 95.4544 35.9843 97.6819 36.4416C99.2631 36.7754 100.446 37.0844 100.446 38.0115C100.446 38.7037 99.6619 39.3836 98.0669 39.3836C96.1831 39.3836 94.6981 38.6295 93.7356 37.7272L92.1406 39.7173Z" fill="#8C51FF"/>
<path d="M116.669 41.4726V29.198H113.741V34.0188H107.306V29.198H104.391V41.4726H107.306V36.318H113.741V41.4726H116.669Z" fill="#8C51FF"/>
<path d="M125.083 41.4726C127.682 41.4726 129.057 40.0016 129.057 38.1598C129.057 36.6147 127.888 35.3415 126.431 35.1437C127.723 34.9088 128.782 33.8705 128.782 32.3254C128.782 30.6937 127.448 29.198 124.849 29.198H117.672V41.4726H125.083ZM120.587 31.4354H124.217C125.207 31.4354 125.812 32.0163 125.812 32.7704C125.812 33.5615 125.207 34.1301 124.217 34.1301H120.587V31.4354ZM120.587 36.3551H124.327C125.468 36.3551 126.087 37.0226 126.087 37.789C126.087 38.679 125.427 39.2476 124.327 39.2476H120.587V36.3551Z" fill="#8C51FF"/>
<path d="M144.231 41.4726L138.965 29.198H135.321L130.055 41.4726H133.245L134.097 39.3588H140.202L141.055 41.4726H144.231ZM139.405 37.0967H134.881L137.15 31.4724L139.405 37.0967Z" fill="#8C51FF"/>
<path d="M152.377 41.6827C155.498 41.6827 157.217 40.187 158.193 38.6665L155.69 37.5788C155.127 38.5924 153.903 39.3588 152.377 39.3588C150.012 39.3588 148.21 37.6529 148.21 35.329C148.21 33.0175 150.012 31.3117 152.377 31.3117C153.903 31.3117 155.127 32.1028 155.69 33.0917L158.193 31.9915C157.23 30.4588 155.498 28.9878 152.377 28.9878C148.389 28.9878 145.227 31.5589 145.227 35.329C145.227 39.1115 148.389 41.6827 152.377 41.6827Z" fill="#8C51FF"/>
<path d="M170.883 41.4726L165.094 34.9583L170.512 29.198H166.937L162.11 34.6863V29.198H159.195V41.4726H162.11V37.7024L163.169 36.5652L167.294 41.4726H170.883Z" fill="#8C51FF"/>
</svg>
