<svg width="64" height="64" viewBox="0 0 64 64" fill="none" xmlns="http://www.w3.org/2000/svg">
<rect width="64" height="64" rx="8" fill="#E8DCFF"/>
<path d="M51.6094 30.4579C51.6094 26.7582 48.7256 23.7194 45.0877 23.4713C45.0798 21.6988 44.4405 20.007 43.2612 18.6631C41.9756 17.1981 40.197 16.3156 38.2529 16.1782C36.3077 16.0404 34.4235 16.6642 32.9448 17.9336C31.6777 19.0213 30.8341 20.4759 30.5188 22.0919C29.3373 21.3287 27.8679 21.0534 26.5145 21.3728C25.2737 21.6658 24.1544 22.5049 23.4435 23.675C22.843 24.6634 22.5818 25.8147 22.6921 26.9231C21.3792 26.7602 20.2196 27.2328 19.2333 28.3338H15.3065C14.5963 28.3338 14.0187 28.9116 14.0187 29.6217C14.0187 30.3319 14.5964 30.9096 15.3065 30.9096H20.1034C20.2967 30.9096 20.4538 31.0668 20.4538 31.26C20.4538 31.4532 20.2966 31.6104 20.1034 31.6104H19.3016C18.5913 31.6104 18.0136 32.1882 18.0136 32.8983C18.0136 33.6084 18.5914 34.1862 19.3016 34.1862H21.7991C21.9923 34.1862 22.1494 34.3434 22.1494 34.5366C22.1494 34.7158 22.0123 34.8667 21.8352 34.8851C21.1351 34.8967 20.5691 35.4699 20.5691 36.1728C20.5691 36.883 21.1468 37.4607 21.8569 37.4607H24.0074V39.0017C24.0074 39.2256 24.1658 39.4183 24.3855 39.4617L25.608 39.7027L26.4006 41.6134L25.706 42.6492C25.5813 42.8352 25.6055 43.0835 25.7638 43.2417L28.606 46.084C28.7644 46.2424 29.0126 46.2666 29.1986 46.1419L30.2344 45.4473L32.1452 46.2399L32.3862 47.4624C32.4296 47.6821 32.6223 47.8405 32.8462 47.8405H36.8656C37.0895 47.8405 37.2822 47.682 37.3255 47.4624L37.5666 46.2399L39.4774 45.4473L40.5132 46.1419C40.6993 46.2666 40.9475 46.2424 41.1057 46.084L43.948 43.2417C44.1063 43.0834 44.1306 42.8352 44.0059 42.6492L43.3112 41.6134L44.1038 39.7027L45.3263 39.4617C45.546 39.4183 45.7044 39.2256 45.7044 39.0017V37.3731C49.0891 36.8367 51.6093 33.9108 51.6093 30.4578L51.6094 30.4579ZM44.767 38.6165L43.6763 38.8315C43.5226 38.8618 43.3941 38.967 43.3341 39.1118L42.3491 41.4863C42.2889 41.6313 42.3053 41.7967 42.3927 41.927L43.0127 42.8514L40.7155 45.1487L39.7911 44.5288C39.6609 44.4414 39.4954 44.4249 39.3504 44.4851L36.9758 45.47C36.8309 45.5301 36.7259 45.6585 36.6955 45.8123L36.4804 46.9029H33.2316L33.0166 45.8123C32.9862 45.6584 32.8811 45.53 32.7363 45.47L30.3616 44.4851C30.3039 44.4611 30.2428 44.4493 30.1821 44.4493C30.0904 44.4493 29.9993 44.4762 29.9209 44.5288L28.9966 45.1487L26.6994 42.8514L27.3193 41.927C27.4066 41.7967 27.423 41.6313 27.363 41.4863L26.378 39.1118C26.3179 38.967 26.1895 38.8618 26.0357 38.8315L24.9451 38.6165V35.3677L26.0357 35.1527C26.1895 35.1224 26.3179 35.0172 26.378 34.8724L27.363 32.4978C27.4231 32.3529 27.4067 32.1875 27.3193 32.0571L26.6994 31.1327L28.9966 28.8355L29.9209 29.4554C30.0512 29.5428 30.2166 29.5592 30.3616 29.4991L32.7363 28.5142C32.8811 28.4541 32.9862 28.3256 33.0166 28.1719L33.2316 27.0813H36.4804L36.6955 28.1719C36.7259 28.3257 36.8309 28.4542 36.9758 28.5142L39.3504 29.4991C39.4953 29.5593 39.6609 29.5427 39.7911 29.4554L40.7155 28.8355L43.0127 31.1327L42.3927 32.0571C42.3054 32.1874 42.289 32.3529 42.3491 32.4978L43.3341 34.8724C43.3941 35.0172 43.5226 35.1224 43.6763 35.1527L44.767 35.3677V38.6165ZM45.7045 36.4218V34.9824C45.7045 34.7584 45.5461 34.5658 45.3264 34.5224L44.1039 34.2814L43.3112 32.3706L44.0059 31.3349C44.1307 31.1489 44.1064 30.9006 43.948 30.7424L41.1058 27.9001C40.9477 27.7419 40.6994 27.7176 40.5133 27.8422L39.4775 28.5368L37.5667 27.7442L37.3256 26.5217C37.2823 26.302 37.0896 26.1437 36.8657 26.1437H32.8463C32.6223 26.1437 32.4297 26.302 32.3863 26.5217L32.1452 27.7443L30.2345 28.5369L29.1987 27.8423C29.0127 27.7177 28.7645 27.7418 28.6061 27.9002L25.7639 30.7424C25.6056 30.9008 25.5814 31.149 25.7061 31.3349L26.4007 32.3707L25.608 34.2815L24.3855 34.5225C24.1659 34.5659 24.0075 34.7585 24.0075 34.9824V36.5234H21.857C21.6637 36.5234 21.5066 36.3663 21.5066 36.1731C21.5066 35.9799 21.6638 35.8227 21.857 35.8227C21.868 35.8227 21.879 35.8223 21.89 35.8215C22.5613 35.7741 23.087 35.2098 23.087 34.5369C23.087 33.8267 22.5092 33.249 21.7991 33.249H19.3016C19.1084 33.249 18.9512 33.0918 18.9512 32.8986C18.9512 32.7054 19.1084 32.5482 19.3016 32.5482H20.1035C20.8137 32.5482 21.3914 31.9705 21.3914 31.2603C21.3914 30.5502 20.8136 29.9724 20.1035 29.9724H15.3065C15.1133 29.9724 14.9562 29.8152 14.9562 29.622C14.9562 29.4288 15.1134 29.2717 15.3065 29.2717H19.4477C19.5869 29.2717 19.7189 29.2098 19.8079 29.1029C20.7499 27.9719 21.8409 27.6015 23.1428 27.9704C23.3043 28.0161 23.4772 27.9722 23.5972 27.8556C23.7173 27.739 23.766 27.5671 23.7251 27.4048C23.4547 26.3328 23.6441 25.1509 24.2448 24.162C24.826 23.2052 25.7319 22.5213 26.73 22.2856C28.0562 21.9723 29.5231 22.3609 30.5577 23.3001C30.6897 23.4201 30.8787 23.4547 31.0448 23.389C31.2109 23.3234 31.3253 23.1692 31.3398 22.9912C31.6246 19.5036 34.6923 16.8662 38.1868 17.1137C41.6773 17.3605 44.3473 20.4031 44.1385 23.8961C44.1308 24.025 44.1766 24.1515 44.2652 24.2455C44.3538 24.3395 44.4773 24.3928 44.6064 24.3928C47.9509 24.3928 50.6719 27.1138 50.6719 30.4582C50.6719 33.3986 48.5616 35.8972 45.7045 36.422V36.4218ZM42.981 22.1342C43.048 22.3843 42.8996 22.6413 42.6495 22.7083C42.6089 22.7192 42.568 22.7244 42.5279 22.7244C42.3209 22.7244 42.1316 22.5863 42.0754 22.3768C41.5597 20.4524 39.8732 19.1214 37.7788 18.986C37.5205 18.9694 37.3246 18.7464 37.3413 18.4881C37.3579 18.2297 37.5798 18.0326 37.8392 18.0505C40.3413 18.2121 42.3595 19.8151 42.9809 22.1342L42.981 22.1342ZM17.4896 33.42C17.4896 32.7099 16.9118 32.1321 16.2017 32.1321H13.6785C12.9684 32.1321 12.3906 32.7099 12.3906 33.42C12.3906 34.1301 12.9684 34.7079 13.6785 34.7079H16.2016C16.9118 34.7079 17.4896 34.1301 17.4896 33.42ZM13.3281 33.42C13.3281 33.2268 13.4853 33.0696 13.6785 33.0696H16.2016C16.3949 33.0696 16.552 33.2268 16.552 33.42C16.552 33.6132 16.3948 33.7704 16.2016 33.7704H13.6785C13.4852 33.7704 13.3281 33.6132 13.3281 33.42ZM22.3612 40.1444C22.3612 39.4342 21.7834 38.8565 21.0734 38.8565H16.9702C16.26 38.8565 15.6823 39.4342 15.6823 40.1444C15.6823 40.8545 16.2601 41.4323 16.9702 41.4323H21.0734C21.7835 41.4323 22.3612 40.8545 22.3612 40.1444ZM16.6198 40.1444C16.6198 39.9512 16.777 39.794 16.9702 39.794H21.0734C21.2666 39.794 21.4237 39.9512 21.4237 40.1444C21.4237 40.3376 21.2665 40.4948 21.0734 40.4948H16.9702C16.777 40.4948 16.6198 40.3376 16.6198 40.1444ZM22.5489 42.254H20.1991C19.489 42.254 18.9113 42.8318 18.9113 43.5419C18.9113 44.252 19.4891 44.8298 20.1991 44.8298H22.5489C23.2591 44.8298 23.8368 44.252 23.8368 43.5419C23.8368 42.8317 23.259 42.254 22.5489 42.254ZM22.5489 43.8923H20.1991C20.0059 43.8923 19.8488 43.7351 19.8488 43.5419C19.8488 43.3487 20.006 43.1915 20.1991 43.1915H22.5489C22.7422 43.1915 22.8993 43.3487 22.8993 43.5419C22.8993 43.7351 22.7421 43.8923 22.5489 43.8923ZM34.856 29.915C30.9538 29.915 27.779 33.0898 27.779 36.992C27.779 40.8943 30.9538 44.069 34.856 44.069C38.7583 44.069 41.933 40.8943 41.933 36.992C41.933 33.0898 38.7583 29.915 34.856 29.915ZM34.856 43.1315C31.4707 43.1315 28.7165 40.3774 28.7165 36.992C28.7165 33.6067 31.4707 30.8525 34.856 30.8525C38.2413 30.8525 40.9955 33.6067 40.9955 36.992C40.9955 40.3774 38.2413 43.1315 34.856 43.1315ZM16.9096 37.8014H18.268C18.9782 37.8014 19.5559 37.2236 19.5559 36.5135C19.5559 35.8034 18.9781 35.2256 18.268 35.2256H16.9096C16.1995 35.2256 15.6217 35.8034 15.6217 36.5135C15.6217 37.2237 16.1995 37.8014 16.9096 37.8014ZM16.9096 36.1631H18.268C18.4613 36.1631 18.6184 36.3203 18.6184 36.5135C18.6184 36.7067 18.4613 36.8639 18.268 36.8639H16.9096C16.7163 36.8639 16.5592 36.7067 16.5592 36.5135C16.5592 36.3203 16.7164 36.1631 16.9096 36.1631ZM34.3873 31.6139V31.3746C34.3873 31.1157 34.5972 30.9059 34.856 30.9059C35.1148 30.9059 35.3248 31.1157 35.3248 31.3746V31.6139C35.3248 31.8727 35.1148 32.0827 34.856 32.0827C34.5972 32.0827 34.3873 31.8727 34.3873 31.6139ZM39.1596 32.6884C39.3427 32.8715 39.3427 33.1683 39.1596 33.3513L38.9904 33.5206C38.8989 33.612 38.7789 33.6578 38.659 33.6578C38.5391 33.6578 38.4191 33.612 38.3276 33.5206C38.1445 33.3375 38.1445 33.0407 38.3276 32.8577L38.4968 32.6884C38.6798 32.5054 38.9767 32.5054 39.1596 32.6884ZM39.7655 36.9921C39.7655 36.7333 39.9754 36.5234 40.2342 36.5234H40.4735C40.7323 36.5234 40.9423 36.7333 40.9423 36.9921C40.9423 37.2509 40.7323 37.4609 40.4735 37.4609H40.2342C39.9754 37.4609 39.7655 37.2509 39.7655 36.9921ZM39.1596 40.6329C39.3427 40.816 39.3427 41.1127 39.1596 41.2958C39.0681 41.3873 38.9481 41.4331 38.8282 41.4331C38.7083 41.4331 38.5883 41.3873 38.4968 41.2958L38.3276 41.1266C38.1445 40.9435 38.1445 40.6467 38.3276 40.4637C38.5105 40.2806 38.8075 40.2806 38.9904 40.4637L39.1596 40.6329ZM35.3248 42.3704V42.6097C35.3248 42.8686 35.1148 43.0784 34.856 43.0784C34.5972 43.0784 34.3873 42.8686 34.3873 42.6097V42.3704C34.3873 42.1116 34.5972 41.9017 34.856 41.9017C35.1148 41.9017 35.3248 42.1116 35.3248 42.3704ZM31.3844 40.4637C31.5675 40.6467 31.5675 40.9435 31.3844 41.1266L31.2152 41.2958C31.1237 41.3873 31.0037 41.4331 30.8838 41.4331C30.7638 41.4331 30.6438 41.3873 30.5523 41.2958C30.3692 41.1127 30.3692 40.816 30.5523 40.6329L30.7216 40.4637C30.9045 40.2806 31.2015 40.2806 31.3844 40.4637ZM29.9465 36.9921C29.9465 37.2509 29.7366 37.4609 29.4777 37.4609H29.2385C28.9797 37.4609 28.7698 37.2509 28.7698 36.9921C28.7698 36.7333 28.9797 36.5234 29.2385 36.5234H29.4777C29.7366 36.5234 29.9465 36.7333 29.9465 36.9921ZM31.3844 32.8577C31.5675 33.0407 31.5675 33.3375 31.3844 33.5206C31.2929 33.612 31.1729 33.6578 31.053 33.6578C30.933 33.6578 30.813 33.612 30.7216 33.5206L30.5523 33.3513C30.3692 33.1683 30.3692 32.8715 30.5523 32.6884C30.7353 32.5054 31.0323 32.5054 31.2152 32.6884L31.3844 32.8577ZM37.0971 34.0881L35.4664 35.7187C35.2813 35.6295 35.0748 35.5781 34.8559 35.5781C34.0763 35.5781 33.442 36.2124 33.442 36.9921C33.442 37.7718 34.0763 38.406 34.8559 38.406C35.6356 38.406 36.2699 37.7717 36.2699 36.9921C36.2699 36.7733 36.2185 36.5667 36.1294 36.3817L37.7599 34.751C37.943 34.568 37.943 34.2712 37.7599 34.0881C37.577 33.9051 37.28 33.9051 37.0971 34.0881V34.0881ZM34.8559 37.4685C34.5932 37.4685 34.3795 37.2548 34.3795 36.9921C34.3795 36.7295 34.5931 36.5156 34.8559 36.5156C35.1187 36.5156 35.3324 36.7294 35.3324 36.9921C35.3324 37.2549 35.1187 37.4685 34.8559 37.4685Z" fill="#8C51FF"/>
</svg>
