<svg width="81" height="68" viewBox="0 0 81 68" fill="none" xmlns="http://www.w3.org/2000/svg">
<path d="M28.1921 30.9237H17.4227C16.1406 30.9237 15.0506 30.4751 14.1531 29.5776C13.256 28.6801 12.8069 27.5904 12.8069 26.3079V24.7702C12.8069 21.3725 14.0091 18.4721 16.4132 16.068C18.8172 13.6647 21.7181 12.4626 25.1154 12.4626H28.1921C29.0253 12.4626 29.7462 12.158 30.3554 11.5492C30.9643 10.9401 31.2688 10.2193 31.2688 9.38588V3.23149C31.2688 2.39829 30.9641 1.67673 30.3554 1.06766C29.7463 0.459424 29.0254 0.154297 28.1921 0.154297H25.1154C21.7817 0.154297 18.6013 0.803954 15.5721 2.10141C12.5432 3.39972 9.92338 5.1547 7.71156 7.36653C5.4999 9.57734 3.74542 12.1974 2.44728 15.2266C1.14915 18.2554 0.5 21.4367 0.5 24.77V58.6153C0.5 61.1807 1.39702 63.359 3.19191 65.1546C4.98697 66.9492 7.16698 67.8464 9.73091 67.8464H28.1932C30.757 67.8464 32.9363 66.9492 34.7316 65.1546C36.5261 63.359 37.4236 61.1807 37.4236 58.6153V40.1546C37.4236 37.5897 36.5261 35.4114 34.7304 33.6156C32.936 31.8213 30.7558 30.9237 28.1921 30.9237Z" fill="url(#paint0_linear_2141_1037)"/>
<path d="M77.8094 33.6156C76.015 31.8213 73.8355 30.9237 71.271 30.9237H60.5019C59.2204 30.9237 58.1294 30.4751 57.2334 29.5776C56.3355 28.6801 55.8872 27.5904 55.8872 26.3079V24.7702C55.8872 21.3725 57.0894 18.4721 59.4923 16.068C61.8955 13.6647 64.7962 12.4626 68.1952 12.4626H71.2712C72.1046 12.4626 72.826 12.158 73.4347 11.5492C74.0431 10.9401 74.3487 10.2193 74.3487 9.38588V3.23149C74.3487 2.39829 74.0433 1.67673 73.4347 1.06766C72.8261 0.459424 72.1047 0.154297 71.2712 0.154297H68.1952C64.8597 0.154297 61.6799 0.803954 58.6499 2.10141C55.6215 3.39972 53.0025 5.1547 50.7907 7.36653C48.5789 9.57734 46.8235 12.1974 45.5259 15.2266C44.2281 18.2554 43.5781 21.4367 43.5781 24.77V58.6153C43.5781 61.1807 44.476 63.359 46.2704 65.1546C48.0649 66.9492 50.2444 67.8464 52.8087 67.8464H71.27C73.8345 67.8464 76.0138 66.9492 77.8082 65.1546C79.6039 63.359 80.4999 61.1807 80.4999 58.6153V40.1546C80.5001 37.5895 79.6039 35.4114 77.8094 33.6156Z" fill="url(#paint1_linear_2141_1037)"/>
<defs>
<linearGradient id="paint0_linear_2141_1037" x1="18.9618" y1="0.154297" x2="18.9618" y2="67.8464" gradientUnits="userSpaceOnUse">
<stop stop-color="#8C51FF"/>
<stop offset="1" stop-color="#8C51FF" stop-opacity="0.4"/>
</linearGradient>
<linearGradient id="paint1_linear_2141_1037" x1="62.039" y1="0.154297" x2="62.039" y2="67.8464" gradientUnits="userSpaceOnUse">
<stop stop-color="#8C51FF"/>
<stop offset="1" stop-color="#8C51FF" stop-opacity="0.4"/>
</linearGradient>
</defs>
</svg>
